Coordinates
version=1
nRows=38
nColumns=38
inDegrees=no

Units are S.I. units (second, meters, Newtons, ...)
If the header above contains a line with 'inDegrees', this indicates whether rotational values are in degrees (yes) or radians (no).

endheader
time	pelvis_tilt	pelvis_list	pelvis_rotation	pelvis_tx	pelvis_ty	pelvis_tz	hip_flexion_r	hip_adduction_r	hip_rotation_r	knee_angle_r	ankle_angle_r	subtalar_angle_r	mtp_angle_r	hip_flexion_l	hip_adduction_l	hip_rotation_l	knee_angle_l	ankle_angle_l	subtalar_angle_l	mtp_angle_l	lumbar_extension	lumbar_bending	lumbar_rotation	arm_flex_r	arm_add_r	arm_rot_r	elbow_flex_r	pro_sup_r	wrist_flex_r	wrist_dev_r	arm_flex_l	arm_add_l	arm_rot_l	elbow_flex_l	pro_sup_l	wrist_flex_l	wrist_dev_l
1.5	2.16084	1.4342	-0.505675	0.786931	1.19967	0.994542	0.290383	0.0376298	-0.489534	0.214806	-0.0126358	0	0	-0.246008	-0.165095	-0.156355	0.406371	0.268784	0	0	-0.325024	0.140674	0.0059499	-0.083847	-0.254722	0.138329	0.465971	1.28108	0	0	0.0867855	-0.220522	0.385203	0.346031	1.36754	0	0
1.51	2.15019	1.43035	-0.486025	0.788633	1.21185	0.993854	0.29262	0.03675	-0.496019	0.238743	-0.0383236	0	0	-0.236755	-0.179566	-0.150848	0.443417	0.260829	0	0	-0.320541	0.146918	0.00180883	-0.094288	-0.252083	0.132124	0.471367	1.28532	0	0	0.0849346	-0.22307	0.395085	0.34046	1.3635	0	0
1.52	2.1236	1.41684	-0.452594	0.790424	1.22326	0.994549	0.291688	0.0450825	-0.505423	0.261968	-0.0593203	0	0	-0.225417	-0.20408	-0.146212	0.486295	0.244894	0	0	-0.322226	0.163674	0.00311445	-0.101366	-0.252198	0.126411	0.477688	1.28891	0	0	0.0867946	-0.221912	0.403512	0.333512	1.35892	0	0
1.53	2.11043	1.41066	-0.433537	0.792216	1.23498	0.994998	0.301485	0.0398887	-0.515387	0.30991	-0.0540749	0	0	-0.208196	-0.219805	-0.136799	0.534375	0.221432	0	0	-0.319859	0.172009	0.0022933	-0.109854	-0.250999	0.121196	0.484604	1.29173	0	0	0.0858508	-0.222403	0.409434	0.329672	1.35479	0	0
1.54	2.09444	1.4076	-0.414124	0.794084	1.24651	0.995451	0.312508	0.032428	-0.525274	0.357431	-0.044809	0	0	-0.184751	-0.231395	-0.125503	0.58806	0.190922	0	0	-0.315834	0.17681	0.00156479	-0.116798	-0.249492	0.116782	0.490521	1.2938	0	0	0.0830144	-0.22372	0.41354	0.329523	1.3507	0	0
1.55	2.06756	1.40696	-0.385086	0.79606	1.25781	0.995644	0.322409	0.0267659	-0.533107	0.394891	-0.0411939	0	0	-0.154183	-0.24065	-0.112506	0.646564	0.153306	0	0	-0.309099	0.179211	-1.58728e-05	-0.122294	-0.247204	0.112031	0.494924	1.29682	0	0	0.0783485	-0.22678	0.419418	0.332753	1.3446	0	0
1.56	2.03652	1.40526	-0.352054	0.798157	1.26878	0.995739	0.32611	0.0282789	-0.536452	0.415449	-0.0416355	0	0	-0.119807	-0.250436	-0.0970749	0.708098	0.111794	0	0	-0.302646	0.182219	-0.00215284	-0.125476	-0.244901	0.109402	0.496652	1.30183	0	0	0.0732255	-0.231575	0.428592	0.338473	1.33512	0	0
1.57	1.99819	1.40331	-0.310844	0.800213	1.27941	0.995544	0.327373	0.0325679	-0.541956	0.428352	-0.036338	0	0	-0.080866	-0.259085	-0.0768983	0.772041	0.0693399	0	0	-0.295037	0.185723	-0.00570029	-0.127828	-0.243255	0.109531	0.498361	1.30523	0	0	0.0690458	-0.236563	0.436632	0.342316	1.3277	0	0
1.58	1.95097	1.40127	-0.259228	0.802098	1.28971	0.995027	0.328683	0.0372046	-0.550572	0.438571	-0.0251473	0	0	-0.0375619	-0.265654	-0.051778	0.836839	0.0279545	0	0	-0.285397	0.189894	-0.0107254	-0.130924	-0.242349	0.110334	0.502359	1.30763	0	0	0.0652623	-0.242076	0.446228	0.346537	1.31877	0	0
1.59	1.9091	1.39765	-0.21226	0.803796	1.29982	0.994531	0.327753	0.0436782	-0.55775	0.445332	-0.0143436	0	0	0.0056475	-0.270726	-0.0240935	0.900514	-0.01062	0	0	-0.276633	0.195414	-0.0157134	-0.134873	-0.242362	0.110959	0.508943	1.3088	0	0	0.0621009	-0.247012	0.454335	0.351258	1.31067	0	0
1.6	1.87239	1.39542	-0.168223	0.80511	1.30995	0.993868	0.324062	0.0582202	-0.536288	0.438006	-0.00722052	0	0	0.0494469	-0.271095	0.0066554	0.962226	-0.0504528	0	0	-0.266337	0.199452	-0.0225567	-0.142196	-0.243651	0.114209	0.521261	1.30615	0	0	0.0560233	-0.258994	0.493597	0.370163	1.26181	0	0
1.61	1.83643	1.39148	-0.1305	0.806683	1.31967	0.993631	0.323799	0.0661159	-0.535235	0.444508	0.00034553	0	0	0.0905748	-0.271296	0.0315343	1.01897	-0.0882027	0	0	-0.258304	0.204055	-0.0231984	-0.1466	-0.244547	0.113132	0.529283	1.30585	0	0	0.0535927	-0.262883	0.501566	0.377015	1.25002	0	0
1.62	1.81938	1.38186	-0.114803	0.808402	1.32917	0.994336	0.318338	0.0726361	-0.557132	0.455237	0.0072687	0	0	0.125023	-0.276956	0.051509	1.06986	-0.119653	0	0	-0.256238	0.213651	-0.0187714	-0.148772	-0.2464	0.111693	0.53586	1.30642	0	0	0.0528804	-0.263983	0.506311	0.381971	1.24228	0	0
1.63	1.82152	1.38419	-0.116747	0.809605	1.33897	0.99481	0.308584	0.0823664	-0.526671	0.449775	0.0161398	0	0	0.154672	-0.26593	0.0717405	1.11682	-0.132743	0	0	-0.253745	0.210107	-0.0189257	-0.152144	-0.245997	0.108886	0.542334	1.30893	0	0	0.0496754	-0.270454	0.525382	0.394	1.21392	0	0
1.64	1.83734	1.38469	-0.136923	0.811055	1.34846	0.996048	0.295747	0.0863945	-0.518154	0.450856	0.0237801	0	0	0.177886	-0.257577	0.0841426	1.15816	-0.12878	0	0	-0.256515	0.207399	-0.0141059	-0.150746	-0.245217	0.106201	0.542028	1.31025	0	0	0.0491986	-0.271794	0.529126	0.397895	1.20396	0	0
1.65	1.8647	1.38624	-0.169071	0.812452	1.35775	0.997629	0.279891	0.0895131	-0.508542	0.449643	0.0301195	0	0	0.197257	-0.247726	0.0936818	1.19364	-0.114935	0	0	-0.262016	0.202902	-0.00942379	-0.145801	-0.242888	0.101124	0.53629	1.31453	0	0	0.0494465	-0.272608	0.530828	0.400894	1.19215	0	0
1.66	1.89398	1.38755	-0.202899	0.813806	1.36683	0.999405	0.262628	0.0930522	-0.499681	0.445309	0.0347838	0	0	0.215571	-0.238094	0.10173	1.22335	-0.0996399	0	0	-0.268376	0.198452	-0.00541414	-0.137783	-0.240348	0.0987217	0.526347	1.3194	0	0	0.0506802	-0.271522	0.525779	0.400315	1.18858	0	0
1.67	1.9856	1.39577	-0.299001	0.81546	1.37526	1.0031	0.234333	0.0878206	-0.488101	0.43635	0.0364017	0	0	0.225051	-0.221405	0.101242	1.2444	-0.0977271	0	0	-0.287765	0.181832	-0.0031709	-0.120991	-0.232969	0.099923	0.507983	1.32185	0	0	0.0569855	-0.272753	0.519427	0.397202	1.18894	0	0
1.68	1.9428	1.39071	-0.259104	0.816244	1.38459	1.00291	0.227981	0.0998973	-0.485354	0.430569	0.0425211	0	0	0.253075	-0.217259	0.117073	1.26636	-0.079444	0	0	-0.279163	0.18935	-0.000245576	-0.116502	-0.235359	0.103125	0.498949	1.32834	0	0	0.055567	-0.265991	0.505546	0.391629	1.19845	0	0
1.69	1.96049	1.39273	-0.278755	0.817273	1.39337	1.00442	0.211107	0.102892	-0.48042	0.420622	0.0449911	0	0	0.272886	-0.206383	0.125343	1.28046	-0.0742663	0	0	-0.282674	0.184935	0.000614814	-0.106836	-0.233923	0.109165	0.488146	1.32855	0	0	0.0587897	-0.263934	0.500038	0.387156	1.203	0	0
1.7	1.9782	1.39408	-0.298102	0.818244	1.40198	1.00596	0.193401	0.106543	-0.476551	0.408741	0.0464963	0	0	0.291884	-0.19671	0.132871	1.28921	-0.0713935	0	0	-0.286897	0.181182	0.00187811	-0.0975911	-0.233269	0.116051	0.479073	1.32635	0	0	0.0631834	-0.261838	0.495401	0.382673	1.20737	0	0
1.71	1.99263	1.39581	-0.314058	0.819201	1.41046	1.0073	0.177064	0.109329	-0.474154	0.398079	0.0479813	0	0	0.311112	-0.187281	0.139505	1.29341	-0.0690553	0	0	-0.290695	0.177192	0.00369547	-0.0901732	-0.233373	0.121596	0.47355	1.32378	0	0	0.0680556	-0.26066	0.492869	0.379723	1.21072	0	0
1.72	2.00981	1.39739	-0.332307	0.820158	1.41887	1.00856	0.160478	0.111827	-0.471828	0.387592	0.0498627	0	0	0.328865	-0.178855	0.144577	1.29251	-0.0662177	0	0	-0.2952	0.173138	0.00560536	-0.0837997	-0.233718	0.126414	0.469742	1.3208	0	0	0.0734023	-0.260308	0.491493	0.377931	1.21294	0	0
1.73	2.03058	1.40003	-0.354605	0.821057	1.42715	1.00976	0.144673	0.112428	-0.468622	0.37897	0.0526766	0	0	0.345276	-0.170308	0.146685	1.28712	-0.064422	0	0	-0.300272	0.167788	0.00821046	-0.0783265	-0.234253	0.129679	0.467773	1.31788	0	0	0.0792248	-0.260498	0.491569	0.376675	1.21422	0	0
1.74	2.0504	1.40393	-0.377183	0.82188	1.43524	1.01085	0.130797	0.111418	-0.462447	0.372477	0.0566454	0	0	0.361097	-0.162049	0.144809	1.27715	-0.0629937	0	0	-0.305066	0.161334	0.0120081	-0.0732626	-0.235589	0.133003	0.467125	1.31523	0	0	0.085155	-0.260597	0.491955	0.375952	1.2145	0	0
1.75	2.13338	1.41488	-0.461138	0.822981	1.44241	1.01342	0.111255	0.0995506	-0.454634	0.365314	0.0571718	0	0	0.371108	-0.145218	0.136733	1.26029	-0.0671345	0	0	-0.320265	0.142369	0.0118687	-0.0609894	-0.231533	0.134794	0.46067	1.31341	0	0	0.0954745	-0.264412	0.491639	0.375894	1.21424	0	0
1.76	2.16358	1.41922	-0.494356	0.823755	1.45053	1.01435	0.0974115	0.0968591	-0.448758	0.359872	0.0608008	0	0	0.382787	-0.136683	0.132341	1.24108	-0.0637493	0	0	-0.325508	0.134657	0.0153531	-0.0556086	-0.232196	0.135251	0.459049	1.31239	0	0	0.10032	-0.265234	0.49061	0.377564	1.21477	0	0
1.77	2.18447	1.42233	-0.518047	0.824568	1.45866	1.01508	0.0839838	0.0965902	-0.442211	0.352954	0.0644183	0	0	0.394429	-0.13049	0.128893	1.21903	-0.0558305	0	0	-0.329683	0.128898	0.018865	-0.0508904	-0.233324	0.137798	0.458461	1.31141	0	0	0.104266	-0.265975	0.48914	0.380876	1.21545	0	0
1.78	2.20183	1.42553	-0.538161	0.825349	1.46668	1.01573	0.0713994	0.0962943	-0.43655	0.346331	0.0676491	0	0	0.405159	-0.126787	0.122076	1.19235	-0.046912	0	0	-0.333421	0.123516	0.0221519	-0.0456369	-0.234237	0.141415	0.456929	1.31008	0	0	0.108442	-0.26615	0.488057	0.38323	1.21546	0	0
1.79	2.22966	1.42853	-0.569209	0.826076	1.47469	1.01649	0.0571565	0.0951285	-0.430502	0.339212	0.0721173	0	0	0.412394	-0.124313	0.11162	1.16095	-0.0377408	0	0	-0.338773	0.117474	0.0254308	-0.0394422	-0.234782	0.144974	0.454474	1.30805	0	0	0.112961	-0.265669	0.486399	0.384095	1.21508	0	0
1.8	2.2722	1.43087	-0.61468	0.82675	1.48284	1.01733	0.0399866	0.0933167	-0.424334	0.330425	0.076666	0	0	0.415142	-0.122263	0.0985899	1.1247	-0.0284799	0	0	-0.345855	0.110715	0.0278916	-0.0326323	-0.23467	0.148604	0.450983	1.30571	0	0	0.11727	-0.265108	0.483805	0.384278	1.21536	0	0
1.81	2.29863	1.4243	-0.641548	0.828247	1.49039	1.01885	0.0274174	0.0999287	-0.445337	0.335584	0.0740858	0	0	0.416403	-0.139226	0.0846625	1.08354	-0.0161228	0	0	-0.358972	0.111878	0.0339184	-0.0241602	-0.234755	0.152624	0.447023	1.30441	0	0	0.126097	-0.262922	0.480516	0.382138	1.21523	0	0
1.82	2.36395	1.43263	-0.711362	0.827971	1.49944	1.01897	0.00329573	0.0906822	-0.411633	0.312586	0.0870769	0	0	0.412325	-0.120998	0.0682913	1.03947	-0.0138173	0	0	-0.361446	0.098779	0.0309194	-0.0171532	-0.233969	0.159049	0.440667	1.30084	0	0	0.125053	-0.262113	0.470862	0.382153	1.22075	0	0
1.83	2.40054	1.43389	-0.750267	0.828473	1.50782	1.01946	-0.0126886	0.0887608	-0.408196	0.305807	0.0920711	0	0	0.409694	-0.121051	0.0507552	0.991355	-0.00876874	0	0	-0.36721	0.0934124	0.0317922	-0.00938171	-0.233582	0.164002	0.434889	1.29903	0	0	0.12836	-0.260813	0.466897	0.381359	1.22292	0	0
1.84	2.43631	1.43489	-0.78755	0.828918	1.51637	1.01975	-0.0284532	0.0865488	-0.407502	0.300028	0.0981966	0	0	0.405311	-0.121401	0.0317209	0.940026	-0.00397877	0	0	-0.37242	0.0883047	0.0317201	-0.00179676	-0.232845	0.168938	0.428533	1.29652	0	0	0.131102	-0.260156	0.464012	0.38098	1.22558	0	0
1.85	2.48473	1.4347	-0.838977	0.829409	1.52499	1.02016	-0.0469984	0.0838877	-0.404899	0.292602	0.103809	0	0	0.395803	-0.122094	0.00765039	0.883508	-0.00042484	0	0	-0.379982	0.0820129	0.0324251	0.00672903	-0.23214	0.175605	0.420949	1.29074	0	0	0.134072	-0.259497	0.458918	0.38006	1.23226	0	0
1.86	2.51667	1.43546	-0.873891	0.829809	1.53364	1.02022	-0.0623796	0.0818817	-0.401023	0.286381	0.109993	0	0	0.387712	-0.122691	-0.0158025	0.824882	0.000741015	0	0	-0.384974	0.0769198	0.0333863	0.0128421	-0.232164	0.179493	0.417544	1.2864	0	0	0.136991	-0.25856	0.45422	0.378592	1.23782	0	0
1.87	2.54424	1.43618	-0.904381	0.830124	1.54237	1.02012	-0.0771943	0.0800977	-0.396509	0.28049	0.117122	0	0	0.378551	-0.122915	-0.0398564	0.763687	0.000537913	0	0	-0.38959	0.0723464	0.034485	0.0173082	-0.232439	0.181528	0.417083	1.28247	0	0	0.139617	-0.258051	0.450848	0.377935	1.2427	0	0
